<svg width="80" height="80" viewBox="0 0 80 80" fill="none" xmlns="http://www.w3.org/2000/svg">
<path d="M24.2344 35.6094C25.8594 34.8906 27.4635 34.5312 29.0469 34.5312C30.6406 34.5312 31.9896 34.75 33.0938 35.1875C34.2083 35.6146 35.1458 36.1927 35.9062 36.9219C37.4375 38.401 38.2031 40.2188 38.2031 42.375C38.2031 44.5938 37.375 46.4479 35.7188 47.9375C33.9792 49.5104 31.6875 50.2969 28.8438 50.2969C26.8438 50.2969 24.8906 49.6979 22.9844 48.5C22.3073 48.0521 21.8229 47.5417 21.5312 46.9688C21.4479 46.8125 21.4062 46.6719 21.4062 46.5469C21.4062 46.0365 21.5938 45.7812 21.9688 45.7812C22.3333 45.7812 22.6406 45.9948 22.8906 46.4219C23.151 46.849 23.4688 47.224 23.8438 47.5469C24.2188 47.8698 24.6667 48.1562 25.1875 48.4062C26.3125 48.9375 27.5781 49.2031 28.9844 49.2031H29.4375C29.5833 49.2031 29.724 49.1927 29.8594 49.1719V35.7188C29.5156 35.6875 29.0573 35.6719 28.4844 35.6719C27.9219 35.6719 27.2344 35.7812 26.4219 36C25.6198 36.2188 25.0052 36.4427 24.5781 36.6719C24.0156 36.974 23.6354 37.125 23.4375 37.125C23.2396 37.125 23.0885 37.0573 22.9844 36.9219C22.8906 36.7865 22.8542 36.6458 22.875 36.5L23.7031 29.375C23.724 29.2917 23.7344 29.2083 23.7344 29.125V28.8594C23.7344 28.3177 23.776 28.0052 23.8594 27.9219C23.9844 27.8073 24.1979 27.75 24.5 27.75L26.7969 27.9062H29.875C32.4375 27.9062 34.2604 27.8021 35.3438 27.5938C35.4271 27.5833 35.5469 27.5781 35.7031 27.5781C35.8594 27.5781 36 27.651 36.125 27.7969C36.25 27.9427 36.3125 28.0938 36.3125 28.25C36.3125 28.7396 35.7292 28.9896 34.5625 29C34.2604 29.0104 33.974 29.0156 33.7031 29.0156H25L24.2344 35.6094Z" fill="#AE2726"/>
<path d="M50.1562 50.2969C48.7292 50.2969 47.4531 50.0521 46.3281 49.5625C45.2135 49.0729 44.2656 48.3385 43.4844 47.3594C41.8698 45.3385 41.0625 42.3854 41.0625 38.5C41.0625 35.0417 41.875 32.3646 43.5 30.4688C45.125 28.5625 47.4323 27.6094 50.4219 27.6094C53.2969 27.6094 55.5156 28.5729 57.0781 30.5C58.6094 32.4062 59.375 35.1458 59.375 38.7188C59.375 42.4896 58.5521 45.3802 56.9062 47.3906C55.3021 49.3281 53.0521 50.2969 50.1562 50.2969ZM50.2656 49.2188C53.9635 49.2188 56.3906 47.3229 57.5469 43.5312C57.9531 42.2083 58.1562 40.6198 58.1562 38.7656C58.1562 36.9115 57.9635 35.3438 57.5781 34.0625C57.1927 32.7812 56.6562 31.7396 55.9688 30.9375C54.6458 29.3958 52.7865 28.625 50.3906 28.625H50.2188V49.2188H50.2656Z" fill="white"/>
</svg>
