<svg width="80" height="80" viewBox="0 0 80 80" fill="none" xmlns="http://www.w3.org/2000/svg">
<path d="M39.1152 37.3906C39.5524 37.3906 41.1611 37.8521 41.2174 36.896C41.2467 36.3973 41.453 34.9195 41.08 34.5465C40.1983 33.6648 38.5305 33.8045 37.3908 33.8045C35.9255 33.8045 35.2631 34.5288 34.636 35.783C34.115 36.825 34.0912 38.173 34.1001 39.3279C34.1099 40.5933 34.4071 42.4878 35.1581 43.5461C36.7516 45.7915 40.6967 45.9524 42.9005 44.6727C45.9153 42.9222 46.5311 39.208 47.0018 36.0304C47.243 34.4028 46.9052 33.1346 45.8477 31.8397C43.6559 29.1559 39.102 28.6678 35.9687 29.5452C34.7559 29.8847 33.5444 30.5424 32.9322 31.7023C31.9529 33.5579 31.6088 35.6258 31.4552 37.6998C31.3749 38.7838 31.3247 39.8821 31.3247 40.9698C31.3247 42.312 31.8188 43.4327 32.2178 44.6865C32.8501 46.674 34.3903 48.8976 36.3535 49.7565C39.2258 51.0131 42.9603 49.326 45.6828 48.4031C48.8699 47.3227 50.7346 44.3474 51.2612 41.1691C51.684 38.6171 51.852 36.1629 51.852 33.5847C51.852 32.76 51.9617 31.8437 51.7971 31.0291C51.5851 29.9802 50.9585 29.019 50.375 28.1437C49.1605 26.322 46.7331 25.2554 44.7142 24.6744C42.372 24.0004 39.8404 23.8825 37.4183 23.8088C35.6191 23.754 33.7686 23.7558 32.0048 24.166C28.4641 24.9894 26.591 28.1242 26.2821 31.6061C26.1113 33.5316 25.9986 35.5808 26.1585 37.5143C26.3429 39.7434 27.1359 41.7918 27.7386 43.917C28.2325 45.6589 28.8727 47.4034 29.8545 48.9321C30.9415 50.6244 32.3962 52.7585 34.3131 53.5899C36.68 54.6165 39.8273 54.8127 42.3921 54.8127C45.0731 54.8127 47.6091 53.9793 49.4613 51.9342C50.116 51.2113 50.4942 50.0735 50.849 49.2206C51.8534 46.806 52.8012 44.3613 53.6588 41.8904C54.0323 40.8143 54.2879 39.7318 54.5725 38.6341C54.8412 37.5977 55.084 36.587 55.0671 35.5083C55.0364 33.5418 54.4054 31.4667 53.8374 29.6207C53.4791 28.4561 53.0539 27.2765 52.4634 26.2064C51.8477 25.0903 50.4995 24.5883 49.3514 24.2553C47.3184 23.6658 45.5072 22.5374 43.4432 22.0157C41.6243 21.556 39.7729 21.34 37.9061 21.1638C36.7084 21.0509 35.5901 20.8979 34.3887 21.0951C32.8356 21.3501 31.7745 22.6795 30.4591 23.4103C28.1893 24.6713 25.5569 25.2147 24.4273 27.7452C23.8404 29.0598 24.0288 30.9473 24.0288 32.3343C24.0288 34.313 23.9829 36.299 24.0357 38.2768C24.1484 42.5029 24.7456 46.8965 25.5745 51.0412C25.8371 52.354 26.1654 53.6381 26.502 54.9364C26.6198 55.3909 26.7398 56.4974 27.2439 56.7775C28.5517 57.5041 29.7414 58.7322 31.2491 59.024C32.1364 59.1957 33.0201 59.1545 33.9215 59.1545" stroke="white" stroke-width="2" stroke-linecap="round"/>
</svg>
